<svg width="350" height="350" viewBox="0 0 350 350" fill="none" xmlns="http://www.w3.org/2000/svg">
<path d="M77.5898 140.418C77.0039 142.254 76.5742 144.227 76.3008 146.336C76.0664 148.445 75.832 150.32 75.5977 151.961L103.898 207.273C104.445 205.789 105.031 204.07 105.656 202.117L107.766 195.906L77.5898 140.418ZM146.613 209.91C149.582 209.676 152.59 209.48 155.637 209.324C154.543 193.23 151.906 172.332 147.727 146.629C147.258 143.738 146.887 141.551 146.613 140.066C143.723 140.301 140.52 140.496 137.004 140.652C141.965 161.512 145.168 184.598 146.613 209.91ZM159.797 132.508L160.324 132.391C161.223 132.391 161.965 132.723 162.551 133.387C163.137 134.012 163.43 134.715 163.43 135.496C163.43 136.277 163.176 136.961 162.668 137.547C162.199 138.094 161.613 138.426 160.91 138.543C159.426 138.777 156.75 139.129 152.883 139.598C153.117 141.238 153.469 143.543 153.938 146.512C154.445 149.441 154.973 152.82 155.52 156.648C156.105 160.438 156.711 164.559 157.336 169.012C157.961 173.465 158.566 177.996 159.152 182.605C160.402 192.566 161.262 201.395 161.73 209.09C163.957 209.09 165.891 209.09 167.531 209.09C169.211 209.09 170.52 209.109 171.457 209.148C172.395 209.188 173.137 209.5 173.684 210.086C174.27 210.633 174.562 211.355 174.562 212.254C174.562 213.113 174.25 213.836 173.625 214.422C173.039 215.008 172.277 215.281 171.34 215.242C170.402 215.203 169.426 215.184 168.41 215.184C167.395 215.184 166.379 215.184 165.363 215.184C154.426 215.184 143.488 216.141 132.551 218.055H131.965C131.066 218.055 130.344 217.742 129.797 217.117C129.25 216.531 128.977 215.867 128.977 215.125C128.977 214.383 129.191 213.719 129.621 213.133C130.09 212.547 130.891 212.156 132.023 211.961C134.602 211.453 137.434 211.004 140.52 210.613C138.879 185.887 136.066 164.656 132.082 146.922C126.301 161.023 118.996 181.336 110.168 207.859C110.168 207.859 109.523 209.812 108.234 213.719C107.727 215.203 107.473 215.984 107.473 216.062C107.082 217.391 106.125 218.055 104.602 218.055C103.273 218.055 102.355 217.547 101.848 216.531L73.4297 160.984C70.3828 183.914 68.6641 200.184 68.2734 209.793C75.3828 210.105 79.4453 210.906 80.4609 212.195C80.8906 212.742 81.1055 213.465 81.1055 214.363C81.1055 215.223 80.7539 215.906 80.0508 216.414C79.3477 216.883 78.7031 217.117 78.1172 217.117H77.4727C72.9414 216.258 68.6641 215.828 64.6406 215.828C60.6172 215.828 57.1797 216.102 54.3281 216.648H53.8594C52.9609 216.648 52.2188 216.336 51.6328 215.711C51.0469 215.086 50.7539 214.383 50.7539 213.602C50.7539 211.883 51.5938 210.848 53.2734 210.496C55.4219 210.145 58.332 209.871 62.0039 209.676C62.668 193.23 65.0312 173.934 69.0938 151.785C69.9531 146.98 70.9102 142.273 71.9648 137.664C67.3164 137.508 63.0391 136.883 59.1328 135.789C57.6094 135.359 56.8477 134.539 56.8477 133.328C56.8477 132.117 57.1602 131.219 57.7852 130.633C58.4492 130.047 59.0156 129.754 59.4844 129.754H60.3633C60.4805 129.754 61.125 129.91 62.2969 130.223C65.5781 131.121 69.3672 131.57 73.6641 131.57L77.8828 131.453C79.0156 131.453 79.9336 131.961 80.6367 132.977L110.52 187.938C120.207 159.539 126.848 142.273 130.441 136.141C131.027 135.164 131.906 134.676 133.078 134.676L159.797 132.508ZM204.152 140.418C203.566 142.254 203.137 144.227 202.863 146.336C202.629 148.445 202.395 150.32 202.16 151.961L230.461 207.273C231.008 205.789 231.594 204.07 232.219 202.117L234.328 195.906L204.152 140.418ZM273.176 209.91C276.145 209.676 279.152 209.48 282.199 209.324C281.105 193.23 278.469 172.332 274.289 146.629C273.82 143.738 273.449 141.551 273.176 140.066C270.285 140.301 267.082 140.496 263.566 140.652C268.527 161.512 271.73 184.598 273.176 209.91ZM286.359 132.508L286.887 132.391C287.785 132.391 288.527 132.723 289.113 133.387C289.699 134.012 289.992 134.715 289.992 135.496C289.992 136.277 289.738 136.961 289.23 137.547C288.762 138.094 288.176 138.426 287.473 138.543C285.988 138.777 283.312 139.129 279.445 139.598C279.68 141.238 280.031 143.543 280.5 146.512C281.008 149.441 281.535 152.82 282.082 156.648C282.668 160.438 283.273 164.559 283.898 169.012C284.523 173.465 285.129 177.996 285.715 182.605C286.965 192.566 287.824 201.395 288.293 209.09C290.52 209.09 292.453 209.09 294.094 209.09C295.773 209.09 297.082 209.109 298.02 209.148C298.957 209.188 299.699 209.5 300.246 210.086C300.832 210.633 301.125 211.355 301.125 212.254C301.125 213.113 300.812 213.836 300.188 214.422C299.602 215.008 298.84 215.281 297.902 215.242C296.965 215.203 295.988 215.184 294.973 215.184C293.957 215.184 292.941 215.184 291.926 215.184C280.988 215.184 270.051 216.141 259.113 218.055H258.527C257.629 218.055 256.906 217.742 256.359 217.117C255.812 216.531 255.539 215.867 255.539 215.125C255.539 214.383 255.754 213.719 256.184 213.133C256.652 212.547 257.453 212.156 258.586 211.961C261.164 211.453 263.996 211.004 267.082 210.613C265.441 185.887 262.629 164.656 258.645 146.922C252.863 161.023 245.559 181.336 236.73 207.859C236.73 207.859 236.086 209.812 234.797 213.719C234.289 215.203 234.035 215.984 234.035 216.062C233.645 217.391 232.688 218.055 231.164 218.055C229.836 218.055 228.918 217.547 228.41 216.531L199.992 160.984C196.945 183.914 195.227 200.184 194.836 209.793C201.945 210.105 206.008 210.906 207.023 212.195C207.453 212.742 207.668 213.465 207.668 214.363C207.668 215.223 207.316 215.906 206.613 216.414C205.91 216.883 205.266 217.117 204.68 217.117H204.035C199.504 216.258 195.227 215.828 191.203 215.828C187.18 215.828 183.742 216.102 180.891 216.648H180.422C179.523 216.648 178.781 216.336 178.195 215.711C177.609 215.086 177.316 214.383 177.316 213.602C177.316 211.883 178.156 210.848 179.836 210.496C181.984 210.145 184.895 209.871 188.566 209.676C189.23 193.23 191.594 173.934 195.656 151.785C196.516 146.98 197.473 142.273 198.527 137.664C193.879 137.508 189.602 136.883 185.695 135.789C184.172 135.359 183.41 134.539 183.41 133.328C183.41 132.117 183.723 131.219 184.348 130.633C185.012 130.047 185.578 129.754 186.047 129.754H186.926C187.043 129.754 187.688 129.91 188.859 130.223C192.141 131.121 195.93 131.57 200.227 131.57L204.445 131.453C205.578 131.453 206.496 131.961 207.199 132.977L237.082 187.938C246.77 159.539 253.41 142.273 257.004 136.141C257.59 135.164 258.469 134.676 259.641 134.676L286.359 132.508Z" fill="#FF6161"/>
<circle cx="175" cy="175" r="170" stroke="#FF6161" stroke-width="10"/>
</svg>
